<?xml version="1.0" encoding="iso-8859-1"?>
<!-- Generator: Adobe Illustrator 19.0.0, SVG Export Plug-In . SVG Version: 6.00 Build 0)  -->
<svg version="1.1" id="Capa_1" xmlns="http://www.w3.org/2000/svg" xmlns:xlink="http://www.w3.org/1999/xlink" x="0px" y="0px"
	 viewBox="0 0 504.123 504.123" style="enable-background:new 0 0 504.123 504.123;" xml:space="preserve">
<circle style="fill:#FBBD5E;" cx="252.062" cy="252.062" r="252.062"/>
<path style="fill:#E0E4E8;" d="M96.886,496.246h311.926c17.329,0,31.508-14.178,31.508-31.508V39.385
	c0-17.329-14.178-31.508-31.508-31.508H199.286L65.378,103.188v361.551C65.378,482.068,79.557,496.246,96.886,496.246z"/>
<path style="fill:#183651;" d="M408.025,504.123H96.886c-22.055,0-39.385-17.329-39.385-39.385V103.188
	c0-2.363,1.575-4.726,3.151-6.302L195.348,1.575C196.923,0.788,198.498,0,200.074,0h208.738c22.055,0,39.385,17.329,39.385,39.385
	v425.354C447.409,486.794,430.08,504.123,408.025,504.123z M73.255,107.126v357.612c0,13.391,10.24,23.631,23.631,23.631h311.926
	c13.391,0,23.631-10.24,23.631-23.631V39.385c0-13.391-10.24-23.631-23.631-23.631H202.437L73.255,107.126z"/>
<polygon style="fill:#FFFFFF;" points="408.025,39.385 408.025,464.738 96.886,464.738 96.886,103.188 199.286,39.385 "/>
<rect x="153.606" y="255.899" transform="matrix(-0.9554 0.2952 -0.2952 -0.9554 711.1903 578.505)" style="fill:#4FBF9F;" width="316.642" height="174.074"/>
<path style="fill:#183651;" d="M185.895,480.492c-1.575,0-2.363,0-3.938-0.788c-1.575-0.788-3.151-2.363-3.938-4.726l-51.2-166.203
	c-1.575-3.938,0.788-8.665,5.514-10.24L434.806,204.8c2.363-0.788,3.938-0.788,6.302,0.788s3.151,2.363,3.938,4.726l51.2,166.203
	c1.575,3.938-0.788,8.665-5.514,10.24l-302.474,93.735C187.471,480.492,186.683,480.492,185.895,480.492z M144.935,311.926
	l46.474,151.237l286.72-89.009l-46.474-151.237L144.935,311.926z"/>
<path style="fill:#FFFFFF;" d="M200.074,411.175l-18.905-62.228c11.815-3.938,18.905-16.542,14.966-28.357l198.498-61.44
	c3.938,11.815,16.542,18.905,28.357,14.966l18.905,62.228c-11.815,3.938-18.905,16.542-14.966,28.357l-198.498,61.44
	C225.28,414.326,211.889,408.025,200.074,411.175z"/>
<g>
	
		<ellipse transform="matrix(-0.2952 -0.9554 0.9554 -0.2952 76.5672 741.6013)" style="fill:#4FBF9F;" cx="311.811" cy="342.56" rx="70.102" ry="52.774"/>
	<circle style="fill:#4FBF9F;" cx="404.874" cy="314.289" r="12.603"/>
	<circle style="fill:#4FBF9F;" cx="218.191" cy="371.791" r="12.603"/>
</g>
<path style="fill:#FFFFFF;" d="M317.44,367.852l-1.575-3.938c-5.514,0.788-11.028,0.788-16.542-1.575l2.363-6.302
	c3.938,1.575,7.877,2.363,11.815,1.575l-2.363-11.815c-4.726,0-8.665,0-11.028-0.788c-2.363-0.788-4.726-3.151-5.514-6.302
	c-0.788-3.151-0.788-6.302,0.788-9.452c1.575-3.151,4.726-4.726,7.877-6.302l-0.788-3.939l3.938-0.788l0.788,3.151
	c4.726-0.788,8.665-0.788,13.391,0.788l-1.575,6.302c-3.151-0.788-6.302-1.575-9.452-0.788l3.151,11.028l0,0
	c4.726,0,8.665,0,11.028,1.575c2.363,0.788,4.726,3.151,5.514,7.089c0.788,3.151,0.788,6.302-0.788,9.452
	c-1.575,3.151-4.726,4.726-8.665,6.302l1.575,3.938L317.44,367.852z M301.686,330.831c-0.788,0.788-0.788,2.363-0.788,3.938
	c0.788,1.575,0.788,2.363,2.363,2.363c0.788,0.788,2.363,0.788,4.726,0.788l-3.151-10.24
	C304.049,329.255,302.474,330.043,301.686,330.831z M322.166,352.886c0.788-1.575,0.788-2.363,0.788-3.938
	c-0.788-1.575-0.788-2.363-2.363-3.151c-0.788-0.788-3.151-0.788-5.514-0.788l3.151,10.24
	C319.803,355.249,321.378,354.462,322.166,352.886z"/>
<path style="fill:#F06151;" d="M199.286,7.877L65.378,103.188h103.188c17.329,0,31.508-14.178,31.508-31.508L199.286,7.877z"/>
<g>
	<path style="fill:#183651;" d="M167.778,111.065h-102.4c-3.151,0-6.302-2.363-7.877-5.514c-1.575-3.151,0-7.089,3.151-8.665
		L195.348,1.575C197.711,0,200.862,0,203.225,0.788c2.363,1.575,3.938,3.938,3.938,7.089V71.68
		C207.163,93.735,189.834,111.065,167.778,111.065z M89.797,95.311h77.982c13.391,0,23.631-10.24,23.631-23.631V22.843
		L89.797,95.311z"/>
	<rect x="249.698" y="90.585" style="fill:#183651;" width="15.754" height="15.754"/>
	<rect x="296.96" y="90.585" style="fill:#183651;" width="15.754" height="15.754"/>
	<rect x="345.009" y="90.585" style="fill:#183651;" width="15.754" height="15.754"/>
	<rect x="132.332" y="130.757" style="fill:#183651;" width="228.431" height="15.754"/>
	<rect x="132.332" y="173.292" style="fill:#183651;" width="228.431" height="15.754"/>
	<rect x="132.332" y="216.615" style="fill:#183651;" width="114.215" height="15.754"/>
</g>
<g>
</g>
<g>
</g>
<g>
</g>
<g>
</g>
<g>
</g>
<g>
</g>
<g>
</g>
<g>
</g>
<g>
</g>
<g>
</g>
<g>
</g>
<g>
</g>
<g>
</g>
<g>
</g>
<g>
</g>
</svg>
